<svg width="16" height="16" viewBox="0 0 16 16" fill="none" xmlns="http://www.w3.org/2000/svg">
<path d="M10.9998 9.66675C12.0532 9.66675 12.9352 10.3734 13.2245 11.3334H14.6665V12.6667H13.2245C12.9352 13.6267 12.0532 14.3334 10.9998 14.3334C9.9465 14.3334 9.0645 13.6267 8.77517 12.6667H1.33317V11.3334H8.77517C9.0645 10.3734 9.9465 9.66675 10.9998 9.66675ZM10.9998 13.0001C11.5512 13.0001 11.9998 12.5514 11.9998 12.0001C11.9998 11.4487 11.5512 11.0001 10.9998 11.0001C10.4485 11.0001 9.99984 11.4487 9.99984 12.0001C9.99984 12.5514 10.4485 13.0001 10.9998 13.0001ZM4.99984 5.66675C6.05317 5.66675 6.93517 6.37341 7.2245 7.33341H14.6665V8.66675H7.2245C6.93517 9.62675 6.05317 10.3334 4.99984 10.3334C3.9465 10.3334 3.0645 9.62675 2.77517 8.66675H1.33317V7.33341H2.77517C3.0645 6.37341 3.9465 5.66675 4.99984 5.66675ZM4.99984 9.00008C5.55117 9.00008 5.99984 8.55141 5.99984 8.00008C5.99984 7.44875 5.55117 7.00008 4.99984 7.00008C4.4485 7.00008 3.99984 7.44875 3.99984 8.00008C3.99984 8.55141 4.4485 9.00008 4.99984 9.00008Z" fill="white"/>
<path d="M7.44184 3.33341C7.73117 2.37341 8.61317 1.66675 9.6665 1.66675C10.7198 1.66675 11.6018 2.37341 11.8912 3.33341H14.6665V4.66675H11.8912C11.6018 5.62675 10.7198 6.33342 9.6665 6.33342C8.61317 6.33342 7.73117 5.62675 7.44184 4.66675H1.24984V3.33341H7.44184ZM9.6665 5.00008C10.2178 5.00008 10.6665 4.55141 10.6665 4.00008C10.6665 3.44875 10.2178 3.00008 9.6665 3.00008C9.11517 3.00008 8.6665 3.44875 8.6665 4.00008C8.6665 4.55141 9.11517 5.00008 9.6665 5.00008Z" fill="white"/>
</svg>
